<svg xmlns="http://www.w3.org/2000/svg">
  <defs>
    <symbol viewBox="0 0 48 48" id="bootstrap">
      <path fill="#7c4dff" d="M7.373 11.443C7.293 9.132 9.094 7 11.529 7h24.946c2.435 0 4.236 2.132 4.155 4.443-.077 2.221.023 5.097.747 7.443.726 2.353 1.951 3.84 3.957 4.031v2.167c-2.006.191-3.23 1.678-3.957 4.031-.724 2.345-.824 5.222-.747 7.443.08 2.31-1.721 4.442-4.155 4.442H11.529c-2.434 0-4.236-2.132-4.155-4.443.077-2.221-.023-5.097-.747-7.443-.726-2.353-1.954-3.84-3.96-4.031v-2.167c2.006-.191 3.233-1.678 3.96-4.031.723-2.345.824-5.221.746-7.442z"/>
      <path fill="#fff" d="M27.073 23.464v-.028c1.853-.32 3.299-2.057 3.299-3.97 0-1.352-.52-2.498-1.504-3.312-.981-.812-2.357-1.241-3.981-1.241H17.45V33.08h7.475c1.942 0 3.555-.474 4.663-1.372 1.109-.899 1.696-2.207 1.696-3.783-.001-2.381-1.691-4.169-4.211-4.461zm-3.483-.856h-3.181V17.29h3.784c2.076 0 3.219.911 3.219 2.565.001 1.775-1.357 2.753-3.822 2.753zm-3.181 2.226h3.759c2.716 0 4.092.981 4.092 2.916 0 1.932-1.357 2.953-3.925 2.953h-3.926v-5.869z"/>
    </symbol>
    <symbol viewBox="0 0 48 48" id="c++">
      <path fill="#00549d" fill-rule="evenodd" d="M22.903 3.286a2.247 2.247 0 012.193 0l16.807 9.434A2.12 2.12 0 0143 14.566v18.867c0 .762-.418 1.466-1.097 1.847l-16.807 9.434a2.247 2.247 0 01-2.193 0L6.096 35.28A2.122 2.122 0 015 33.434V14.567c0-.762.418-1.466 1.097-1.847l16.806-9.434z" clip-rule="evenodd"/>
      <path fill="#0086d4" fill-rule="evenodd" d="M5.304 34.404C5.038 34.048 5 33.71 5 33.255V14.496c0-.758.417-1.458 1.094-1.836l16.748-9.38c.677-.379 1.594-.371 2.271.008 3.343 1.872 13.371 7.459 16.714 9.331.27.152.476.335.66.576L5.304 34.404z" clip-rule="evenodd"/>
      <path fill="#fff" fill-rule="evenodd" d="M24 10c7.727 0 14 6.273 14 14s-6.273 14-14 14-14-6.273-14-14 6.273-14 14-14zm0 7c3.863 0 7 3.136 7 7 0 3.863-3.137 7-7 7s-7-3.137-7-7c0-3.864 3.136-7 7-7z" clip-rule="evenodd"/>
      <path fill="#0075c0" fill-rule="evenodd" d="M42.485 13.205c.516.483.506 1.211.506 1.784 0 3.795-.032 14.589.009 18.384.004.396-.127.813-.323 1.127L23.593 24l18.892-10.795z" clip-rule="evenodd"/>
      <path fill="#fff" fill-rule="evenodd" d="M31 21h2v6h-2zm7 0h2v6h-2z" clip-rule="evenodd"/>
      <path fill="#fff" fill-rule="evenodd" d="M29 23h6v2h-6zm7 0h6v2h-6z" clip-rule="evenodd"/>
    </symbol>
    <symbol viewBox="0 0 48 48" id="css">
      <path fill="#0277BD" d="M41 5H7l3 34 14 4 14-4 3-34z"/>
      <path fill="#039BE5" d="M24 8v31.9l11.2-3.2L37.7 8z"/>
      <path fill="#FFF" d="M33.1 13H24v4h4.9l-.3 4H24v4h4.4l-.3 4.5-4.1 1.4v4.2l7.9-2.6.7-11.5z"/>
      <path fill="#EEE" d="M24 13v4h-8.9l-.3-4H24zm-4.6 8l.2 4H24v-4h-4.6zm.4 6h-4l.3 5.5 7.9 2.6v-4.2l-4.1-1.4-.1-2.5z"/>
    </symbol>
    <symbol viewBox="0 0 48 48" id="facebook-messenger">
      <path fill="#448AFF" d="M24 4C13.5 4 5 12.1 5 22c0 5.2 2.3 9.8 6 13.1V44l7.8-4.7c1.6.4 3.4.7 5.2.7 10.5 0 19-8.1 19-18S34.5 4 24 4z"/>
      <path fill="#FFF" d="M12 28l10-11 5 5 9-5-10 11-5-5z"/>
    </symbol>
    <symbol viewBox="0 0 48 48" id="facebook">
      <path fill="#039be5" d="M24 5a19 19 0 100 38 19 19 0 100-38z"/>
      <path fill="#fff" d="M26.572 29.036h4.917l.772-4.995h-5.69v-2.73c0-2.075.678-3.915 2.619-3.915h3.119v-4.359c-.548-.074-1.707-.236-3.897-.236-4.573 0-7.254 2.415-7.254 7.917v3.323h-4.701v4.995h4.701v13.729c.931.14 1.874.235 2.842.235.875 0 1.729-.08 2.572-.194v-13.77z"/>
    </symbol>
    <symbol viewBox="0 0 32 32" id="github">
      <path fill-rule="evenodd" d="M16 4C9.371 4 4 9.371 4 16c0 5.3 3.438 9.8 8.207 11.387.602.11.82-.258.82-.578 0-.286-.011-1.04-.015-2.04-3.34.723-4.043-1.609-4.043-1.609-.547-1.387-1.332-1.758-1.332-1.758-1.09-.742.082-.726.082-.726 1.203.086 1.836 1.234 1.836 1.234 1.07 1.836 2.808 1.305 3.492 1 .11-.777.422-1.305.762-1.605-2.664-.301-5.465-1.332-5.465-5.93 0-1.313.469-2.383 1.234-3.223-.121-.3-.535-1.523.117-3.175 0 0 1.008-.32 3.301 1.23A11.487 11.487 0 0116 9.805c1.02.004 2.047.136 3.004.402 2.293-1.55 3.297-1.23 3.297-1.23.656 1.652.246 2.875.12 3.175.77.84 1.231 1.91 1.231 3.223 0 4.61-2.804 5.621-5.476 5.922.43.367.812 1.101.812 2.219 0 1.605-.011 2.898-.011 3.293 0 .32.214.695.824.578C24.566 25.797 28 21.3 28 16c0-6.629-5.371-12-12-12z"/>
    </symbol>
    <symbol viewBox="0 0 48 48" id="google-maps">
      <path fill="#48b564" d="M35.76 26.36h.01S32 31.89 28.83 36c-2.74 3.55-3.54 6.59-3.77 8.06-.09.54-.53.94-1.06.94s-.97-.4-1.06-.94c-.23-1.47-1.03-4.51-3.77-8.06-.42-.55-.85-1.12-1.28-1.7L28.24 22l8.33-9.88c.92 1.93 1.43 4.09 1.43 6.38 0 2.9-.83 5.59-2.24 7.86z"/>
      <path fill="#fcc60e" d="M28.24 22L17.89 34.3c-2.82-3.78-5.66-7.94-5.66-7.94h.01c-.3-.48-.57-.97-.8-1.48L19.76 15c-.79.95-1.26 2.17-1.26 3.5 0 3.04 2.46 5.5 5.5 5.5 1.71 0 3.24-.78 4.24-2z"/>
      <path fill="#2c85eb" d="M28.4 4.74l-8.57 10.18-6.56-5.72C15.83 6.02 19.69 4 24 4c1.54 0 3.02.26 4.4.74z"/>
      <path fill="#ed5748" d="M19.83 14.92l-.07.08-8.32 9.88C10.52 22.95 10 20.79 10 18.5c0-3.54 1.23-6.79 3.27-9.3l6.56 5.72z"/>
      <path fill="#5695f6" d="M28.24 22c.79-.95 1.26-2.17 1.26-3.5 0-3.04-2.46-5.5-5.5-5.5-1.71 0-3.24.78-4.24 2L28.4 4.74c3.59 1.22 6.53 3.91 8.17 7.38L28.24 22z"/>
    </symbol>
    <symbol viewBox="0 0 48 48" id="html">
      <path fill="#E65100" d="M41 5H7l3 34 14 4 14-4 3-34z"/>
      <path fill="#FF6D00" d="M24 8v31.9l11.2-3.2L37.7 8z"/>
      <path fill="#FFF" d="M24 25v-4h8.6l-.7 11.5-7.9 2.6v-4.2l4.1-1.4.3-4.5H24zm8.9-8l.3-4H24v4h8.9z"/>
      <path fill="#EEE" d="M24 30.9v4.2l-7.9-2.6-.4-5.5h4l.2 2.5 4.1 1.4zM19.1 17H24v-4h-9.1l.7 12H24v-4h-4.6l-.3-4z"/>
    </symbol>
    <symbol viewBox="0 0 48 48" id="instagram">
      <path fill="#304ffe" d="M41.67 13.48c-.4.26-.97.5-1.21.77-.09.09-.14.19-.12.29v1.03l-.3 1.01-.3 1-.33 1.1-.68 2.25-.66 2.22-.5 1.67c0 .26-.01.52-.03.77-.07.96-.27 1.88-.59 2.74-.19.53-.42 1.04-.7 1.52-.1.19-.22.38-.34.56-.4.63-.88 1.21-1.41 1.72-.41.41-.86.79-1.35 1.11h-.01c-.08.07-.17.13-.27.18-.31.21-.64.39-.98.55-.23.12-.46.22-.7.31-.05.03-.11.05-.16.07-.57.27-1.23.45-1.89.54-.04.01-.07.01-.11.02-.4.07-.79.13-1.19.16-.18.02-.37.03-.55.03l-.71-.04-3.42-.18c0-.01-.01 0-.01 0l-1.72-.09c-.13 0-.27 0-.4-.01-.54-.02-1.06-.08-1.58-.19h-.01c-.95-.18-1.86-.5-2.71-.93-.47-.24-.93-.51-1.36-.82-.18-.13-.35-.27-.52-.42-.48-.4-.91-.83-1.31-1.27-.06-.06-.11-.12-.16-.18-.06-.06-.12-.13-.17-.19-.38-.48-.7-.97-.96-1.49-.24-.46-.43-.95-.58-1.49-.06-.19-.11-.37-.15-.57a.076.076 0 01-.02-.05c-.1-.41-.19-.84-.24-1.27-.06-.33-.09-.66-.09-1-.02-.13-.02-.27-.02-.4l1.91-2.95 1.87-2.88.85-1.31.77-1.18.26-.41v-1.03c.02-.23.03-.47.02-.69-.01-.7-.15-1.38-.38-2.03-.22-.69-.53-1.34-.85-1.94-.38-.69-.78-1.31-1.11-1.87-.49-.82-.83-1.49-.74-1.96C14.47 6.09 15.23 6 16 6h16c4.18 0 7.78 2.6 9.27 6.26.16.39.3.8.4 1.22z"/>
      <path fill="#4928f4" d="M42 16v.27l-1.38.8-.88.51-.97.56-1.94 1.13-1.9 1.1-1.94 1.12-.77.45c0 .48-.12.92-.34 1.32-.31.58-.83 1.06-1.49 1.47-.67.41-1.49.74-2.41.98 0 0 0-.01-.01 0-3.56.92-8.42.5-10.78-1.26-.66-.49-1.12-1.09-1.32-1.78a2.92 2.92 0 01-.09-.73v-7.19c.01-.15-.09-.3-.27-.45-.54-.43-1.81-.84-3.23-1.25-1.11-.31-2.3-.62-3.3-.92-.79-.24-1.46-.48-1.86-.71.18-.35.39-.7.61-1.03 1.4-2.05 3.54-3.56 6.02-4.13C14.47 6.09 15.23 6 16 6h10.8a33.68 33.68 0 0114.47 6.26c.16.39.3.8.4 1.22.18.66.29 1.34.32 2.05.01.15.01.31.01.47z"/>
      <path fill="#6200ea" d="M42 16v4.41l-.22.68-.75 2.33-.78 2.4-.41 1.28-.38 1.19-.37 1.13-.36 1.12-.19.59-.25.78c0 .76-.02 1.43-.07 2-.01.06-.02.12-.02.18-.06.53-.14.98-.27 1.36-.01.06-.03.12-.05.17-.26.72-.65 1.18-1.23 1.48-.14.08-.3.14-.47.2-.53.18-1.2.27-2.02.32-.6.04-1.29.05-2.07.05h-.69l-1.19-.05-.21-.01-2.17-.09-2.2-.09-7.25-.3-1.88-.08h-.26c-.78-.01-1.45-.06-2.03-.14-.84-.13-1.49-.35-1.98-.68-.7-.45-1.11-1.11-1.35-2.03-.06-.22-.11-.45-.14-.7-.1-.58-.15-1.25-.18-2 0-.15 0-.3-.01-.46-.01-.01 0-.01 0-.01v-.58c-.01-.29-.01-.59-.01-.9l.05-1.61.03-1.15.04-1.34v-.19l.07-2.46.07-2.46.07-2.31.06-2.27.02-.6c0-.31-1.05-.49-2.22-.64-.93-.12-1.95-.23-2.56-.37.05-.23.1-.46.16-.68.18-.72.45-1.4.79-2.05.18-.35.39-.7.61-1.03 2.16-.95 4.41-1.69 6.76-2.17 2.06-.43 4.21-.66 6.43-.66 7.36 0 14.16 2.49 19.54 6.69.52.4 1.03.83 1.53 1.28.01.15.01.31.01.47z"/>
      <path fill="#673ab7" d="M42 18.37v4.54l-.55 1.06-1.05 2.05-.56 1.08-.51.99-.22.43c0 .31 0 .61-.02.9 0 .43-.02.84-.05 1.22-.04.45-.1.86-.16 1.24-.15.79-.36 1.47-.66 2.03-.04.07-.08.14-.12.2-.11.18-.24.35-.38.51-.18.22-.38.41-.61.57-.34.26-.74.47-1.2.63-.57.21-1.23.35-2.01.43-.51.05-1.07.08-1.68.08l-.42.02-2.08.12h-.01l-2.21.13-2.25.13-3.1.18-3.77.22-.55.03c-.51 0-.99-.03-1.45-.09-.05-.01-.09-.02-.14-.02-.68-.11-1.3-.29-1.86-.54-.68-.3-1.27-.7-1.77-1.18-.44-.43-.82-.92-1.13-1.47-.07-.13-.14-.25-.2-.39-.3-.59-.54-1.25-.72-1.97-.03-.12-.06-.25-.08-.38-.06-.23-.11-.47-.14-.72-.11-.64-.17-1.32-.2-2.03v-.01c-.01-.29-.02-.57-.02-.87l-.49-1.17-.07-.18-.06-.15-.75-1.79-.12-.29-.72-1.73-.8-1.93H7.1l-.81-1.95-.29-.71V16c0-.63.06-1.25.17-1.85.05-.23.1-.46.16-.68.85-.49 1.74-.94 2.65-1.34 2.08-.93 4.31-1.62 6.62-2.04 1.72-.31 3.51-.48 5.32-.48 7.31 0 13.94 2.65 19.12 6.97.2.16.39.32.58.49.47.41.93.84 1.38 1.3z"/>
      <path fill="#8e24aa" d="M42 21.35v5.14l-.57 1.19-1.08 2.25-.01.03c0 .43-.02.82-.05 1.17-.1 1.15-.38 1.88-.84 2.33-.33.34-.74.53-1.25.63-.03.01-.07.01-.1.02-.16.03-.33.05-.51.05-.62.06-1.35.02-2.19-.04-.09 0-.19-.01-.29-.02-.61-.04-1.26-.08-1.98-.11-.39-.01-.8-.02-1.22-.02h-.02l-1.01.08h-.01l-2.27.16-2.59.2-.38.03-3.03.22-1.57.12-1.55.11c-.27 0-.53 0-.79-.01 0 0-.01-.01-.01 0-1.13-.02-2.14-.09-3.04-.26-.83-.14-1.56-.36-2.18-.69-.64-.31-1.17-.75-1.6-1.31-.41-.55-.71-1.24-.9-2.07v-.01c-.14-.67-.22-1.45-.22-2.33l-.15-.27-.89-1.59-.13-.22-.07-.14-.93-1.65-.46-.83-.58-1.03-1-1.79-.53-.94v-3.68c.88-.58 1.79-1.09 2.73-1.55 1.14-.58 2.32-1.07 3.55-1.47 1.34-.44 2.74-.79 4.17-1.02 1.45-.24 2.94-.36 4.47-.36 6.8 0 13.04 2.43 17.85 6.47.22.17.43.36.64.54.84.75 1.64 1.56 2.37 2.41.08.09.16.17.22.26z"/>
      <path fill="#c2185b" d="M42 24.71v7.23c-.24-.14-.57-.31-.98-.49-.22-.11-.47-.22-.73-.32-.38-.17-.79-.33-1.25-.49-.1-.04-.2-.07-.31-.1-.18-.07-.37-.13-.56-.19-.59-.18-1.24-.35-1.92-.5-.26-.05-.53-.1-.8-.14-.87-.15-1.8-.24-2.77-.25-.08-.01-.17-.01-.25-.01l-2.57.02-3.5.02h-.01l-7.49.06c-2.38 0-3.84.57-4.72.8 0 0-.01 0-.01.01-.93.24-1.22.09-1.3-1.54-.02-.45-.03-1.03-.03-1.74l-.56-.43-.98-.74-.6-.46-.12-.09-1.66-1.26-.25-.19-.52-.4-.96-.72L6 21.91v-3.4c.1-.08.19-.15.29-.21 1.45-1 3-1.85 4.64-2.54 1.46-.62 3-1.11 4.58-1.46.43-.09.87-.18 1.32-.24 1.33-.23 2.7-.34 4.09-.34 6.01 0 11.53 2.09 15.91 5.55.66.52 1.3 1.07 1.9 1.66.82.78 1.59 1.61 2.3 2.49.14.18.28.36.42.55.19.24.37.49.55.74z"/>
      <path fill="#d81b60" d="M42 28.72V32c0 .65-.06 1.29-.18 1.91-.18.92-.49 1.8-.91 2.62-.22.05-.47.05-.75.01-.63-.11-1.37-.44-2.17-.87a.37.37 0 01-.11-.05c-.25-.13-.51-.27-.77-.43-.53-.29-1.09-.61-1.65-.91-.12-.06-.24-.12-.35-.18-.64-.33-1.3-.63-1.96-.86h-.01c-.14-.05-.29-.1-.44-.14-.57-.16-1.15-.26-1.71-.26l-1.1-.32-4.87-1.41h-.01l-2.99-.87h-.01l-1.3-.38c-3.76 0-6.07 1.6-7.19.99-.44-.23-.7-.81-.79-1.95-.03-.32-.04-.68-.04-1.1l-1.17-.57-.05-.02h-.01l-.84-.42-.92-.44-.07-.03-.17-.09-1.96-.95-1.5-.73v-3.43c.17-.15.35-.29.53-.43.19-.15.38-.29.57-.44h.01c1.18-.85 2.43-1.6 3.76-2.22 1.55-.74 3.2-1.31 4.91-1.68.25-.06.51-.12.77-.16 1.42-.27 2.88-.41 4.37-.41 5.27 0 10.11 1.71 14.01 4.59 1.13.84 2.18 1.77 3.14 2.78.79.83 1.52 1.73 2.18 2.67.05.07.1.14.15.2.37.54.71 1.09 1.03 1.66.21.34.39.69.57 1.04z"/>
      <path fill="#f50057" d="M41.82 33.91a9.929 9.929 0 01-1.54 3.68c-.14.21-.29.41-.44.6-.36-.14-.89-.34-1.54-.56v-.01c-.49-.17-1.05-.35-1.65-.52a18.217 18.217 0 00-2.69-.61c-.6-.1-1.19-.16-1.74-.16l-.46-.13h-.01l-2.42-.7-1.49-.43-1.66-.48h-.01l-.54-.15-6.53-1.88-1.88-.54-1.4-.33-2.28-.54-.28-.07h-.01l-2.29-.53v-.01l-.41-.09-.21-.05-1.67-.39-.19-.05-1.42-1.17L6 27.9v-4.08c.37-.36.75-.7 1.15-1.03.12-.11.25-.21.38-.31.12-.1.25-.2.38-.3a20.2 20.2 0 012.89-1.84c1.3-.7 2.68-1.26 4.13-1.66.28-.09.56-.17.85-.23 1.64-.41 3.36-.62 5.14-.62a21.594 21.594 0 0116.62 7.76c.66.79 1.26 1.62 1.79 2.5.05.07.09.13.13.2.32.53.62 1.08.89 1.64.25.5.47 1 .67 1.52.32.8.58 1.62.8 2.46z"/>
      <path fill="#ff1744" d="M40.28 37.59a9.802 9.802 0 01-1.9 2.09c-.47.39-.97.74-1.5 1.04-.2-.05-.4-.11-.61-.19-.66-.23-1.35-.61-1.99-1.01-.96-.61-1.79-1.27-2.16-1.57l-.21-.18-1.7-.15-.21-.02-2.2-.19-2.28-.2-3.37-.3-5.34-.47-.02-.01-1.88-.91-1.9-.92-1.53-.74-.33-.16-.41-.2-1.42-.69-1.89-.91-.59-.29-.84-.26v-4.47c.47-.56.97-1.09 1.5-1.6.34-.32.7-.64 1.07-.94.06-.05.12-.1.18-.14.04-.05.09-.08.13-.1.59-.48 1.21-.91 1.85-1.3.74-.47 1.52-.89 2.33-1.24.87-.39 1.78-.72 2.72-.97 1.63-.46 3.36-.7 5.14-.7 4.08 0 7.85 1.24 10.96 3.37 1.99 1.36 3.71 3.08 5.07 5.07.45.64.85 1.32 1.22 2.02.13.26.26.52.37.78.12.25.23.5.34.75.21.52.4 1.04.57 1.58a18.624 18.624 0 01.83 4.13z"/>
      <path fill="#ff5722" d="M38.39 39.42c0 .08 0 .17-.01.26-.47.39-.97.74-1.5 1.04-.22.12-.44.24-.67.34-.23.11-.46.21-.7.3-.34-.18-.8-.4-1.29-.61-.69-.31-1.44-.59-2.02-.68-.14-.03-.27-.04-.39-.04l-1.64-.21h-.02l-2.04-.27-2.06-.27-.96-.12-7.56-.98c-.49 0-1.01-.03-1.55-.1-.66-.06-1.35-.16-2.04-.3-.68-.12-1.37-.28-2.03-.45-.69-.16-1.37-.35-2-.53a74.552 74.552 0 01-3.16-1.02c-.18-.43-.33-.88-.44-1.34A9.38 9.38 0 016 32v-1.67c.32-.53.67-1.05 1.06-1.54.71-.94 1.52-1.8 2.4-2.56.03-.04.07-.07.1-.09l.01-.01c.31-.28.63-.53.97-.77.04-.04.08-.07.12-.1.16-.12.33-.24.51-.35a17.24 17.24 0 014.7-2.24c1.6-.48 3.29-.73 5.05-.73 3.49 0 6.75 1.03 9.47 2.79 2.01 1.29 3.74 2.99 5.06 4.98.16.23.31.46.46.7.69 1.17 1.26 2.43 1.68 3.75.05.15.09.3.13.46.08.27.15.55.21.83.02.07.04.14.06.22.14.63.24 1.29.31 1.95v.01c.06.59.09 1.19.09 1.79z"/>
      <path fill="#ff6f00" d="M36.33 39.42c0 .35-.02.73-.06 1.11l-.06.53a9.503 9.503 0 01-2.08.71c-.32.07-.65.13-.98.16h-.01c-.31-.19-.67-.42-1.04-.68-.67-.47-1.37-1-1.93-1.43l-.02-.02c-.59-.45-1.01-.79-1.01-.79l-1.06.04-2.04.07-.95.04-3.82.14-3.23.12c-.21.01-.46.01-.77 0h-.01c-.42-.01-.92-.04-1.47-.09-.64-.05-1.34-.11-2.05-.18-.69-.08-1.39-.16-2.06-.24-.74-.08-1.44-.17-2.04-.25-.47-.06-.88-.11-1.21-.15-.28-.32-.53-.65-.77-1.01a9.12 9.12 0 01-.91-1.72c-.18-.43-.33-.88-.44-1.34.29-.89.67-1.73 1.12-2.54.36-.66.78-1.29 1.24-1.89.45-.59.94-1.14 1.47-1.64v-.01c.15-.15.3-.29.45-.42.28-.26.57-.5.87-.73h.01c.01-.02.02-.02.03-.03.24-.19.49-.36.74-.53a15.15 15.15 0 014.95-2.2c1.19-.29 2.44-.45 3.73-.45 2.54 0 4.94.61 7.05 1.71h.01c1.81.93 3.41 2.21 4.7 3.75.71.82 1.32 1.72 1.82 2.67.35.64.65 1.31.9 1.99.02.06.04.11.06.16.17.5.32 1.02.45 1.54.09.37.16.75.22 1.13.02.12.04.23.05.35.1.69.15 1.4.15 2.12z"/>
      <path fill="#ff9800" d="M34.28 39.42v.1c0 .34-.03.77-.06 1.23l-.09 1.02c-.32.07-.65.13-.98.16h-.01c-.38.05-.75.07-1.14.07h-1.75l-.38-.11-1.97-.6-2-.6-4.63-1.39-2-.6s-.83.33-2 .72h-.01c-.45.15-.94.31-1.46.47-.65.19-1.34.38-2.02.53-.7.16-1.39.28-2.01.33-.19.02-.38.03-.55.03a10.282 10.282 0 01-3.56-3.28c.07-.45.15-.89.27-1.32.3-1.19.77-2.33 1.39-3.37.34-.59.72-1.16 1.16-1.69.01-.03.04-.06.07-.08-.01-.01 0-.01 0-.01.13-.17.27-.33.41-.48v-.01c.41-.44.83-.86 1.29-1.25.16-.13.31-.26.48-.39.03-.03.06-.05.1-.08 2.25-1.72 5.06-2.76 8.09-2.76 3.44 0 6.57 1.29 8.94 3.41a13.4 13.4 0 012.84 3.63c.06.1.12.21.17.32.09.18.18.37.26.57.33.72.59 1.48.77 2.26l.06.24a13.382 13.382 0 01.32 2.93z"/>
      <path fill="#ffc107" d="M32.22 39.42c0 .2-.01.42-.02.65-.02.37-.05.77-.1 1.18-.02.25-.06.5-.1.75h-5.48l-1.06-.17-4.14-.66-.59-.09-1.35-.22c-.59 0-1.87.26-3.22.51-.71.13-1.43.27-2.08.36l-.23.03h-.01c-.7-.15-1.38-.38-2.02-.68-.2-.09-.4-.19-.6-.3-.56-.31-1.1-.68-1.59-1.09-.01-.12-.02-.22-.02-.27 0-.26.01-.51.03-.76.04-.64.13-1.26.27-1.86.22-.91.54-1.79.97-2.6.08-.17.17-.34.27-.5.04-.08.09-.15.13-.23.18-.29.38-.57.58-.85.42-.55.89-1.07 1.39-1.54h.01c.04-.04.08-.08.12-.11.05-.04.09-.09.14-.12.2-.18.4-.34.61-.49 0-.01.01-.01.01-.01a11.28 11.28 0 016.78-2.24c1.98 0 3.82.5 5.43 1.38h.01c1.38.76 2.58 1.79 3.53 3.03.37.48.7.99.98 1.53h.01l.15.3c.3.59.54 1.21.72 1.85h.01c.01.05.03.1.04.15.12.43.22.87.29 1.32l.03.28c.07.48.1.97.1 1.47z"/>
      <path fill="#ffd54f" d="M30.17 39.31c0 .16 0 .33-.02.49v.02c-.02.72-.12 1.43-.28 2.07 0 .04-.01.07-.03.11h-4.67l-3.85-.83-.51-.11-.08.02-4.27.88-.19.04H16c-.64 0-1.27-.06-1.88-.18l-.27-.06h-.01c-.7-.15-1.38-.38-2.02-.68-.02-.11-.04-.22-.05-.33-.07-.43-.1-.88-.1-1.33 0-.17 0-.34.01-.51.03-.54.11-1.07.23-1.58.08-.38.19-.75.32-1.1.11-.31.24-.61.38-.9.12-.25.26-.49.4-.73.14-.23.29-.45.45-.67a9.029 9.029 0 012.36-2.24 9.245 9.245 0 015.1-1.52c.37 0 .73.02 1.08.07h.02c1.07.12 2.07.42 2.99.87h.01c1.45.71 2.68 1.78 3.58 3.1.15.22.3.46.43.7.11.19.21.39.3.59.14.31.27.64.38.97h.01c.11.37.21.74.28 1.13v.01c.11.55.17 1.12.17 1.7z"/>
      <path fill="#ffe082" d="M28.11 39.52v.03c0 .59-.07 1.17-.21 1.74-.05.24-.12.48-.21.71h-4.48l-2.29-.63-2.29.63H16c-.64 0-1.27-.06-1.88-.18-.02-.03-.03-.06-.04-.09-.14-.43-.25-.86-.3-1.31-.04-.29-.06-.59-.06-.9 0-.12 0-.25.02-.37.01-.47.08-.93.2-1.37.06-.3.15-.59.27-.87.04-.14.1-.27.17-.4.15-.34.33-.67.53-.99.22-.32.46-.62.73-.9.32-.36.68-.69 1.09-.96.7-.51 1.5-.89 2.37-1.1.58-.16 1.19-.24 1.82-.24 2 0 3.79.8 5.09 2.09.05.05.11.11.16.18h.01c.14.15.27.3.4.47.37.47.68.98.92 1.54.12.26.22.53.3.81l.03.11c.14.49.23 1 .25 1.53.02.15.03.31.03.47z"/>
      <path fill="#ffecb3" d="M26.06 39.52c0 .41-.05.8-.16 1.17-.1.4-.25.78-.44 1.14-.03.06-.1.17-.1.17h-8.88a.076.076 0 01-.02-.04c-.12-.19-.22-.38-.3-.59-.2-.46-.32-.96-.36-1.48-.02-.12-.02-.25-.02-.37 0-.06 0-.13.01-.19.01-.44.07-.86.19-1.25.1-.36.23-.69.4-1.01 0 0 .01-.01.01-.02.12-.21.25-.42.4-.62.49-.66 1.14-1.2 1.89-1.55h.01c.24-.12.49-.22.75-.29h.01c.46-.14.96-.21 1.47-.21.59 0 1.16.09 1.68.28.19.05.37.13.55.22h.01c.86.41 1.59 1.05 2.09 1.85.1.15.19.31.27.48.04.07.08.15.11.22.23.52.37 1.09.41 1.69.01.05.01.1.01.16.01.08.01.16.01.24z"/>
      <path fill="none" stroke="#fff" stroke-linecap="round" stroke-linejoin="round" stroke-miterlimit="10" stroke-width="2" d="M30 11H18c-3.9 0-7 3.1-7 7v12c0 3.9 3.1 7 7 7h12c3.9 0 7-3.1 7-7V18c0-3.9-3.1-7-7-7z"/>
      <circle cx="31" cy="16" r="1" fill="#fff"/>
      <g>
        <circle cx="24" cy="24" r="6" fill="none" stroke="#fff" stroke-linecap="round" stroke-linejoin="round" stroke-miterlimit="10" stroke-width="2"/>
      </g>
    </symbol>
    <symbol viewBox="0 0 48 48" id="javascript">
      <path fill="#ffd600" d="M6 42V6h36v36H6z"/>
      <path fill="#000001" d="M29.538 32.947c.692 1.124 1.444 2.201 3.037 2.201 1.338 0 2.04-.665 2.04-1.585 0-1.101-.726-1.492-2.198-2.133l-.807-.344c-2.329-.988-3.878-2.226-3.878-4.841 0-2.41 1.845-4.244 4.728-4.244 2.053 0 3.528.711 4.592 2.573l-2.514 1.607c-.553-.988-1.151-1.377-2.078-1.377-.946 0-1.545.597-1.545 1.377 0 .964.6 1.354 1.985 1.951l.807.344C36.452 29.645 38 30.839 38 33.523 38 36.415 35.716 38 32.65 38c-2.999 0-4.702-1.505-5.65-3.368l2.538-1.685zm-11.586.082c.506.906 1.275 1.603 2.381 1.603 1.058 0 1.667-.418 1.667-2.043V22h3.333v11.101c0 3.367-1.953 4.899-4.805 4.899-2.577 0-4.437-1.746-5.195-3.368l2.619-1.603z"/>
    </symbol>
    <symbol viewBox="0 0 48 48" id="linkedin">
      <path fill="#0288D1" d="M42 37a5 5 0 01-5 5H11a5 5 0 01-5-5V11a5 5 0 015-5h26a5 5 0 015 5v26z"/>
      <path fill="#FFF" d="M12 19h5v17h-5zm2.485-2h-.028C12.965 17 12 15.888 12 14.499 12 13.08 12.995 12 14.514 12c1.521 0 2.458 1.08 2.486 2.499C17 15.887 16.035 17 14.485 17zM36 36h-5v-9.099c0-2.198-1.225-3.698-3.192-3.698-1.501 0-2.313 1.012-2.707 1.99-.144.35-.101 1.318-.101 1.807v9h-5V19h5v2.616C25.721 20.5 26.85 19 29.738 19c3.578 0 6.261 2.25 6.261 7.274L36 36z"/>
    </symbol>
    <symbol viewBox="0 0 48 48" id="nodejs">
      <path fill="#388e3c" d="M17.204 19.122l-4.907 2.715a.563.563 0 00-.297.492v5.433c0 .203.113.39.297.492l4.908 2.717c.183.101.41.101.593 0l4.907-2.717a.566.566 0 00.295-.492v-5.433a.564.564 0 00-.297-.492l-4.906-2.715a.613.613 0 00-.594 0m25.248 4.891l-.818.452a.093.093 0 00-.049.082v.906c0 .034.019.065.049.082l.818.453a.102.102 0 00.099 0l.818-.453a.095.095 0 00.049-.082v-.906a.094.094 0 00-.05-.082l-.818-.452c-.015-.009-.032-.013-.049-.013s-.034.004-.049.013"/>
      <path fill="#37474f" d="M35.751 13.364l-2.389-1.333a.243.243 0 00-.361.212L33 20.295l-2.203-1.219a.613.613 0 00-.594 0h.001l-4.907 2.715a.563.563 0 00-.297.491v5.433c0 .203.113.39.297.492l4.908 2.717c.183.101.41.101.593 0l4.907-2.717a.565.565 0 00.295-.492V13.788a.487.487 0 00-.249-.424zm-2.885 13.094l-2.23 1.235a.28.28 0 01-.269 0l-2.231-1.235a.255.255 0 01-.136-.224v-2.47c0-.092.051-.177.135-.224l2.231-1.234h-.001a.29.29 0 01.27 0l2.23 1.234a.259.259 0 01.135.225v2.47a.257.257 0 01-.134.223z"/>
      <path fill="#2e7d32" d="M17.204 19.122L12 27.762c0 .203.113.39.297.492l4.908 2.717c.183.101.41.101.593 0L23 22.329a.564.564 0 00-.297-.492l-4.906-2.715a.613.613 0 00-.594 0"/>
      <path fill="#4caf50" d="M17.204 19.122l-4.907 2.715a.563.563 0 00-.297.492l5.204 8.642c.183.101.41.101.593 0l4.907-2.717a.565.565 0 00.296-.492l-5.203-8.64a.613.613 0 00-.594 0"/>
      <path fill="#37474f" d="M47.703 21.791l-4.906-2.715a.613.613 0 00-.594 0h.001l-4.907 2.715a.574.574 0 00-.297.503v5.411c0 .209.114.402.297.503l4.908 2.717a.613.613 0 00.593 0l2.263-1.253a.3.3 0 00-.002-.526l-4.924-2.687a.263.263 0 01-.135-.228v-2.466c0-.092.05-.177.13-.221l2.235-1.236h-.001a.29.29 0 01.27 0l2.235 1.237c.08.044.13.129.13.221v2.012a.241.241 0 00.363.208l2.398-1.393a.483.483 0 00.24-.417v-1.88a.576.576 0 00-.297-.505zm-37 0l-4.906-2.715a.613.613 0 00-.594 0h.001L.297 21.791a.574.574 0 00-.297.503v7.465a.241.241 0 00.363.208l2.398-1.393A.482.482 0 003 28.157v-4.393c0-.092.05-.177.13-.221l2.235-1.236a.29.29 0 01.27 0l2.235 1.237c.08.044.13.129.13.221v4.393a.48.48 0 00.24.417l2.398 1.393a.246.246 0 00.242.001.245.245 0 00.12-.21v-7.464a.576.576 0 00-.297-.504z"/>
    </symbol>
    <symbol viewBox="0 0 48 48" id="pinterest">
      <circle cx="24" cy="24" r="20" fill="#E60023"/>
      <path fill="#FFF" d="M24.444 11.416c-8.632 0-13.215 5.795-13.215 12.103 0 2.934 1.561 6.586 4.06 7.749.378.176.581.1.668-.267.067-.279.404-1.637.555-2.269.049-.201.025-.374-.138-.573-.827-1.003-1.489-2.846-1.489-4.564 0-4.412 3.34-8.68 9.03-8.68 4.913 0 8.353 3.348 8.353 8.137 0 5.41-2.732 9.158-6.286 9.158-1.964 0-3.433-1.624-2.962-3.615.565-2.377 1.657-4.942 1.657-6.659 0-1.535-.823-2.817-2.53-2.817-2.007 0-3.618 2.076-3.618 4.857 0 1.77.598 2.969.598 2.969s-1.982 8.381-2.345 9.941c-.402 1.722-.246 4.142-.072 5.723.451.177.903.354 1.369.499.817-1.328 2.035-3.506 2.486-5.243.244-.936 1.247-4.754 1.247-4.754.652 1.244 2.556 2.297 4.583 2.297 6.032 0 10.379-5.547 10.379-12.44 0-6.609-5.392-11.552-12.33-11.552z"/>
    </symbol>
    <symbol viewBox="0 0 48 48" id="python">
      <path fill="#0277BD" d="M24.047 5c-1.555.005-2.633.142-3.936.367-3.848.67-4.549 2.077-4.549 4.67V14h9v2H10.87c-2.636 0-4.943 1.242-5.674 4.219-.826 3.417-.863 5.557 0 9.125C5.851 32.005 7.294 34 9.931 34h3.632v-5.104c0-2.966 2.686-5.896 5.764-5.896h7.236c2.523 0 5-1.862 5-4.377v-8.586c0-2.439-1.759-4.263-4.218-4.672.061-.006-1.756-.371-3.298-.365zm-4.984 4c.821 0 1.5.677 1.5 1.502a1.5 1.5 0 01-1.5 1.498 1.49 1.49 0 01-1.5-1.498A1.5 1.5 0 0119.063 9z"/>
      <path fill="#FFC107" d="M23.078 43c1.555-.005 2.633-.142 3.936-.367 3.848-.67 4.549-2.077 4.549-4.67V34h-9v-2h13.693c2.636 0 4.943-1.242 5.674-4.219.826-3.417.863-5.557 0-9.125C41.274 15.995 39.831 14 37.194 14h-3.632v5.104c0 2.966-2.686 5.896-5.764 5.896h-7.236c-2.523 0-5 1.862-5 4.377v8.586c0 2.439 1.759 4.263 4.218 4.672-.061.006 1.756.371 3.298.365zm4.985-4c-.821 0-1.5-.677-1.5-1.502a1.5 1.5 0 011.5-1.498c.837 0 1.5.664 1.5 1.498 0 .822-.664 1.502-1.5 1.502z"/>
    </symbol>
    <symbol viewBox="0 0 48 48" id="share">
      <path fill="#1976D2" d="M38.1 31.2L19.4 24l18.7-7.2c1.5-.6 2.3-2.3 1.7-3.9-.6-1.5-2.3-2.3-3.9-1.7l-26 10C8.8 21.6 8 22.8 8 24s.8 2.4 1.9 2.8l26 10c.4.1.7.2 1.1.2 1.2 0 2.3-.7 2.8-1.9.6-1.6-.2-3.3-1.7-3.9z"/>
      <path fill="#1E88E5" d="M11 17a7 7 0 100 14 7 7 0 100-14zM37 7a7 7 0 100 14 7 7 0 100-14zm0 20a7 7 0 100 14 7 7 0 100-14z"/>
    </symbol>
    <symbol viewBox="0 0 48 48" id="telegram">
      <path fill="#29b6f6" d="M24 4a20 20 0 100 40 20 20 0 100-40z"/>
      <path fill="#fff" d="M33.95 15l-3.746 19.126s-.161.874-1.245.874c-.576 0-.873-.274-.873-.274l-8.114-6.733-3.97-2.001-5.095-1.355S10 24.375 10 23.625c0-.625.933-.923.933-.923l21.316-8.468c-.001-.001.651-.235 1.126-.234.292 0 .625.125.625.5 0 .25-.05.5-.05.5z"/>
      <path fill="#b0bec5" d="M23 30.505l-3.426 3.374s-.149.115-.348.12a.494.494 0 01-.219-.043l.964-5.965L23 30.505z"/>
      <path fill="#cfd8dc" d="M29.897 18.196a.5.5 0 00-.701-.093L16 26s2.106 5.892 2.427 6.912c.322 1.021.58 1.045.58 1.045l.964-5.965 9.832-9.096a.499.499 0 00.094-.7z"/>
    </symbol>
    <symbol viewBox="0 0 48 48" id="tiktok">
      <path fill="#212121" fill-rule="evenodd" d="M10.904 6h26.191A4.905 4.905 0 0142 10.904v26.191A4.905 4.905 0 0137.096 42H10.904A4.905 4.905 0 016 37.096V10.904A4.905 4.905 0 0110.904 6z" clip-rule="evenodd"/>
      <path fill="#ec407a" fill-rule="evenodd" d="M29.208 20.607a9.587 9.587 0 005.592 1.788v-4.011c-.395 0-.788-.041-1.174-.123v3.157a9.596 9.596 0 01-5.592-1.788v8.184a7.415 7.415 0 01-7.417 7.413 7.385 7.385 0 01-4.129-1.254 7.398 7.398 0 005.303 2.23 7.415 7.415 0 007.417-7.413v-8.183zm1.449-4.046a5.594 5.594 0 01-1.449-3.273v-.516h-1.113a5.616 5.616 0 002.562 3.789zM19.079 30.832a3.392 3.392 0 013.73-5.285v-4.1a7.552 7.552 0 00-1.174-.068v3.191a3.392 3.392 0 00-2.556 6.262z" clip-rule="evenodd"/>
      <path fill="#fff" fill-rule="evenodd" d="M28.034 19.63a9.587 9.587 0 005.592 1.788v-3.157a5.62 5.62 0 01-2.969-1.701 5.613 5.613 0 01-2.561-3.788h-2.923V28.79a3.392 3.392 0 01-6.094 2.041 3.39 3.39 0 011.527-6.42c.359 0 .705.056 1.03.159v-3.19a7.414 7.414 0 00-5.146 12.594 7.385 7.385 0 004.129 1.254 7.415 7.415 0 007.417-7.413l-.002-8.185z" clip-rule="evenodd"/>
      <path fill="#81d4fa" fill-rule="evenodd" d="M33.626 18.262v-.854a5.586 5.586 0 01-2.969-.848 5.605 5.605 0 002.969 1.702zm-5.531-5.49a5.484 5.484 0 01-.061-.461v-.516h-4.036v16.019a3.392 3.392 0 01-4.919 3.017 3.392 3.392 0 006.094-2.041V12.772h2.922zm-6.46 8.608v-.909a7.415 7.415 0 00-5.147 13.503 7.384 7.384 0 01-2.114-5.183 7.415 7.415 0 017.261-7.411z" clip-rule="evenodd"/>
    </symbol>
    <symbol viewBox="0 0 48 48" id="twitter">
      <path fill="#03A9F4" d="M42 12.429a14.978 14.978 0 01-4.247 1.162 7.38 7.38 0 003.251-4.058 14.829 14.829 0 01-4.693 1.776A7.377 7.377 0 0030.926 9c-4.08 0-7.387 3.278-7.387 7.32 0 .572.067 1.129.193 1.67a21.05 21.05 0 01-15.224-7.654 7.23 7.23 0 00-1 3.686c0 2.541 1.301 4.778 3.285 6.096a7.52 7.52 0 01-3.349-.914v.086c0 3.551 2.547 6.508 5.923 7.181a7.346 7.346 0 01-1.941.263c-.477 0-.942-.054-1.392-.135.94 2.902 3.667 5.023 6.898 5.086a14.925 14.925 0 01-9.174 3.134 14.61 14.61 0 01-1.761-.104A21.109 21.109 0 0017.321 38c13.585 0 21.017-11.156 21.017-20.834 0-.317-.01-.633-.025-.945A14.532 14.532 0 0042 12.429"/>
    </symbol>
    <symbol viewBox="0 0 48 48" id="twitterx">
      <path fill="#616161" d="M41 6L9.929 42H6.215L37.287 6z"/>
      <path fill="#fff" fill-rule="evenodd" clip-rule="evenodd" d="M31.143 41L7.82 7h8.957L40.1 41z"/>
      <path fill="#616161" d="M15.724 9l20.578 30h-4.106L11.618 9h4.106m1.58-3H5.922l24.694 36h11.382L17.304 6z"/>
    </symbol>
    <symbol viewBox="0 0 48 48" id="vs">
      <path fill="#29b6f6" d="M44 11.11v25.78c0 1.27-.79 2.4-1.98 2.82l-8.82 4.14L34 33V15l-.8-10.85 8.82 4.14A2.98 2.98 0 0144 11.11z"/>
      <path fill="#0277bd" d="M9 33.896L34 15V5.353c0-1.198-1.482-1.758-2.275-.86L4.658 29.239a2 2 0 00.107 3.032s1.324 1.232 1.803 1.574c.736.525 1.703.585 2.432.051z"/>
      <path fill="#0288d1" d="M9 14.104L34 33v9.647c0 1.198-1.482 1.758-2.275.86L4.658 18.761a2 2 0 01.107-3.032s1.324-1.232 1.803-1.574c.736-.525 1.703-.585 2.432-.051z"/>
    </symbol>
    <symbol viewBox="0 0 48 48" id="whatsapp">
      <path fill="#fff" d="M4.868 43.303l2.694-9.835a18.941 18.941 0 01-2.535-9.489C5.032 13.514 13.548 5 24.014 5a18.867 18.867 0 0113.43 5.566A18.866 18.866 0 0143 23.994c-.004 10.465-8.522 18.98-18.986 18.98-.001 0 0 0 0 0h-.008a18.965 18.965 0 01-9.073-2.311l-10.065 2.64z"/>
      <path fill="#fff" d="M4.868 43.803a.499.499 0 01-.482-.631l2.639-9.636a19.48 19.48 0 01-2.497-9.556C4.532 13.238 13.273 4.5 24.014 4.5a19.367 19.367 0 0113.784 5.713A19.362 19.362 0 0143.5 23.994c-.004 10.741-8.746 19.48-19.486 19.48a19.535 19.535 0 01-9.144-2.277l-9.875 2.589a.457.457 0 01-.127.017z"/>
      <path fill="#cfd8dc" d="M24.014 5a18.867 18.867 0 0113.43 5.566A18.866 18.866 0 0143 23.994c-.004 10.465-8.522 18.98-18.986 18.98h-.008a18.965 18.965 0 01-9.073-2.311l-10.065 2.64 2.694-9.835a18.941 18.941 0 01-2.535-9.489C5.032 13.514 13.548 5 24.014 5m0-1C12.998 4 4.032 12.962 4.027 23.979a20.01 20.01 0 002.461 9.622L3.903 43.04a.998.998 0 001.219 1.231l9.687-2.54a20.026 20.026 0 009.197 2.244c11.024 0 19.99-8.963 19.995-19.98A19.856 19.856 0 0038.153 9.86 19.869 19.869 0 0024.014 4z"/>
      <path fill="#40c351" d="M35.176 12.832a15.673 15.673 0 00-11.157-4.626c-8.704 0-15.783 7.076-15.787 15.774a15.738 15.738 0 002.413 8.396l.376.597-1.595 5.821 5.973-1.566.577.342a15.75 15.75 0 008.032 2.199h.006c8.698 0 15.777-7.077 15.78-15.776a15.68 15.68 0 00-4.618-11.161z"/>
      <path fill="#fff" fill-rule="evenodd" d="M19.268 16.045c-.355-.79-.729-.806-1.068-.82-.277-.012-.593-.011-.909-.011-.316 0-.83.119-1.265.594-.435.475-1.661 1.622-1.661 3.956 0 2.334 1.7 4.59 1.937 4.906.237.316 3.282 5.259 8.104 7.161 4.007 1.58 4.823 1.266 5.693 1.187.87-.079 2.807-1.147 3.202-2.255.395-1.108.395-2.057.277-2.255-.119-.198-.435-.316-.909-.554s-2.807-1.385-3.242-1.543c-.435-.158-.751-.237-1.068.238-.316.474-1.225 1.543-1.502 1.859-.277.317-.554.357-1.028.119s-2.002-.738-3.815-2.354c-1.41-1.257-2.362-2.81-2.639-3.285-.277-.474-.03-.731.208-.968.213-.213.474-.554.712-.831.237-.277.316-.475.474-.791.158-.317.079-.594-.04-.831-.117-.238-1.039-2.584-1.461-3.522z" clip-rule="evenodd"/>
    </symbol>
    <symbol viewBox="0 0 48 48" id="wordpress">
      <path fill="#fff" d="M24 4.05a19.95 19.95 0 100 39.9 19.95 19.95 0 100-39.9z"/>
      <path fill="#01579b" d="M8.001 24c0 6.336 3.68 11.806 9.018 14.4L9.385 17.488A15.942 15.942 0 008.001 24zm26.803-.806c0-1.977-1.063-3.35-1.67-4.412-.813-1.329-1.576-2.437-1.576-3.752 0-1.465 1.471-2.84 3.041-2.84.071 0 .135.006.206.008A15.901 15.901 0 0024.001 8c-5.389 0-10.153 2.666-13.052 6.749.228.074.307.039.611.039 1.669 0 4.264-.2 4.264-.2.86-.057.965 1.212.099 1.316 0 0-.864.105-1.828.152l5.931 17.778 3.5-10.501-2.603-7.248c-.861-.046-1.679-.152-1.679-.152-.862-.056-.762-1.375.098-1.316 0 0 2.648.2 4.217.2 1.675 0 4.264-.2 4.264-.2.861-.057.965 1.212.104 1.316 0 0-.87.105-1.832.152l5.891 17.61 1.599-5.326c.814-2.08 1.219-3.8 1.219-5.175zm-10.523 2.202l-4.8 13.952c1.436.426 2.95.652 4.52.652 1.861 0 3.649-.324 5.316-.907-.04-.071-.085-.143-.118-.22l-4.918-13.477zm13.762-9.078c.071.51.108 1.059.108 1.645 0 1.628-.306 3.451-1.219 5.737l-4.885 14.135A15.994 15.994 0 0040 24a16 16 0 00-1.957-7.682z"/>
      <path fill="#01579b" d="M4 24c0 11.024 8.97 20 19.999 20C35.03 44 44 35.024 44 24S35.03 4 24 4 4 12.976 4 24zm1.995 0c0-9.924 8.074-17.999 18.004-17.999S42.005 14.076 42.005 24 33.929 42.001 24 42.001c-9.928 0-18.005-8.077-18.005-18.001z"/>
    </symbol>
    <symbol viewBox="0 0 48 48" id="youtube">
      <path fill="#FF3D00" d="M43.2 33.9c-.4 2.1-2.1 3.7-4.2 4-3.3.5-8.8 1.1-15 1.1-6.1 0-11.6-.6-15-1.1-2.1-.3-3.8-1.9-4.2-4-.4-2.3-.8-5.7-.8-9.9s.4-7.6.8-9.9c.4-2.1 2.1-3.7 4.2-4C12.3 9.6 17.8 9 24 9c6.2 0 11.6.6 15 1.1 2.1.3 3.8 1.9 4.2 4 .4 2.3.9 5.7.9 9.9-.1 4.2-.5 7.6-.9 9.9z"/>
      <path fill="#FFF" d="M20 31V17l12 7z"/>
    </symbol>
    <symbol id="trayectoria" viewBox="0 0 300 200">
    <svg width="400" height="250" xmlns="http://www.w3.org/2000/svg">
  <!-- Círculo -->
  <circle cx="50" cy="150" r="20" fill="none" stroke="white" stroke-width="5"/>

  <!-- Línea discontinua diagonal desde el borde del círculo -->
  <line 
    x1="74" y1="140" 
    x2="200" y2="50" 
    stroke="white" 
    stroke-width="6" 
    stroke-dasharray="20,15" 
    stroke-linecap="round"/>

  <!-- Línea discontinua horizontal que parte del final de la diagonal -->
  <line 
    x1="200" y1="50" 
    x2="350" y2="50" 
    stroke="white" 
    stroke-width="6" 
    stroke-dasharray="20,15" 
    stroke-linecap="round"/>
</svg>

    </symbol>
  </defs>
</svg>